.
..............................Site Info...........................

 -   http://www.scenetime.com  *_*    

Scenetime .Always on time . friendly online private torrent community ..

     We care to share . Join us on  http://www.scenetime.com 

    Be the first to get new release at  http://www.scenetime.com

        Seed back for speed


...................................NFO:.................................................[IMG]http://i.imgur.com/qD9lu.gif[/IMG]

 
TITLE: 

Lawless 2012 TS XViD v1 - INSPiRAL

IMDB: 
 
http://www.imdb.com/title/tt1212450/


SOURCES:

VIDEO -  HP THANKS
AUDIO -  ADTRG THANKS
SUBS  - None Add

STATS:

Video
ID                               : 0
Format                           : MPEG-4 Visual
Format profile                   : Advanced Simple@L5
Format settings, BVOP            : 2
Format settings, QPel            : No
Format settings, GMC             : No warppoints
Format settings, Matrix          : Default (MPEG)
Muxing mode                      : Packed bitstream
Codec ID                         : XVID
Codec ID/Hint                    : XviD
Duration                         : 1h 49mn
Bit rate                         : 1 662 Kbps
Width                            : 608 pixels
Height                           : 304 pixels
Display aspect ratio             : 2.000
Frame rate                       : 29.970 fps
Color space                      : YUV
Chroma subsampling               : 4:2:0
Bit depth                        : 8 bits
Scan type                        : Progressive
Compression mode                 : Lossy
Bits/(Pixel*Frame)               : 0.300
Stream size                      : 1.27 GiB (92%)
Writing library                  : XviD 64

Audio
ID                               : 1
Format                           : MPEG Audio
Format version                   : Version 1
Format profile                   : Layer 3
Mode                             : Joint stereo
Mode extension                   : MS Stereo
Codec ID                         : 55
Codec ID/Hint                    : MP3
Duration                         : 1h 49mn
Bit rate mode                    : Constant
Bit rate                         : 128 Kbps
Channel(s)                       : 2 channels
Sampling rate                    : 48.0 KHz
Compression mode                 : Lossy
Stream size                      : 100.0 MiB (7%)
Alignment                        : Split accross interleaves
Interleave, duration             : 33 ms (1.00 video frame)
Interleave, preload duration     : 500 ms


NOTES:

Ok the video is the same as our cam release ....read notes on that if ya need to know what we did 
to the video.
Audio this time round is line and thanks to adtrg for that :)
The audio was sligtly oos when muxing so had to add an offset to it then dropped in AA and cleaned the audio.
Lowered the db's as it was a little overpowering for me,and also changed the EQ bands to balance it out better
and lower the background noise.

V1 .....because in the process of doing the another TS but with matines video :)
Users can then choose themselfs.


SCREENS:

[img]http://i.imgrz.com/EbAq5.png[/img] 
[img]http://i.imgrz.com/WtHvE.png[/img] 
[img]http://i.imgrz.com/W7FD8.png[/img] 
[img]http://i.imgrz.com/rKoNm.png[/img] 
[img]http://i.imgrz.com/Q0ahi.png[/img] 
[img]http://i.imgrz.com/2xIE4.png[/img] 
[img]http://i.imgrz.com/c6a3V.png[/img] 

GREETZ: 

Past,Present and Future

[IMG]http://i.imgur.com/qD9lu.gif[/IMG]